<mxfile host="Electron" modified="2025-07-05T18:07:10.642Z" agent="Mozilla/5.0 (Windows NT 10.0; Win64; x64) AppleWebKit/537.36 (KHTML, like Gecko) draw.io/24.0.4 Chrome/120.0.6099.109 Electron/28.1.0 Safari/537.36" etag="AM63MJ3hyP7jvySrr9Nw" version="24.0.4" type="device">
  <diagram name="Page-1" id="Ikurisf6gKU5D0WnUJwT">
    <mxGraphModel dx="1276" dy="606" grid="1" gridSize="10" guides="1" tooltips="1" connect="1" arrows="1" fold="1" page="1" pageScale="1" pageWidth="850" pageHeight="1100" math="0" shadow="0">
      <root>
        <mxCell id="0" />
        <mxCell id="1" parent="0" />
        <mxCell id="Cvl91ToUlRYQaEAVH23j-4" style="edgeStyle=orthogonalEdgeStyle;rounded=0;orthogonalLoop=1;jettySize=auto;html=1;entryX=0;entryY=0.5;entryDx=0;entryDy=0;" parent="1" source="Cvl91ToUlRYQaEAVH23j-1" target="Cvl91ToUlRYQaEAVH23j-3" edge="1">
          <mxGeometry relative="1" as="geometry" />
        </mxCell>
        <mxCell id="Cvl91ToUlRYQaEAVH23j-1" value="start" style="ellipse;whiteSpace=wrap;html=1;" parent="1" vertex="1">
          <mxGeometry x="50" y="40" width="120" height="80" as="geometry" />
        </mxCell>
        <mxCell id="Cvl91ToUlRYQaEAVH23j-6" value="" style="edgeStyle=orthogonalEdgeStyle;rounded=0;orthogonalLoop=1;jettySize=auto;html=1;" parent="1" source="Cvl91ToUlRYQaEAVH23j-3" target="Cvl91ToUlRYQaEAVH23j-7" edge="1">
          <mxGeometry relative="1" as="geometry">
            <mxPoint x="320" y="200" as="targetPoint" />
          </mxGeometry>
        </mxCell>
        <mxCell id="Cvl91ToUlRYQaEAVH23j-3" value="fetch request&amp;nbsp;" style="rounded=0;whiteSpace=wrap;html=1;" parent="1" vertex="1">
          <mxGeometry x="305" y="30" width="120" height="60" as="geometry" />
        </mxCell>
        <mxCell id="Cvl91ToUlRYQaEAVH23j-9" value="yes" style="edgeStyle=orthogonalEdgeStyle;rounded=0;orthogonalLoop=1;jettySize=auto;html=1;entryX=0.5;entryY=0;entryDx=0;entryDy=0;" parent="1" source="Cvl91ToUlRYQaEAVH23j-7" target="Cvl91ToUlRYQaEAVH23j-8" edge="1">
          <mxGeometry x="-0.125" relative="1" as="geometry">
            <Array as="points">
              <mxPoint x="520" y="155" />
            </Array>
            <mxPoint as="offset" />
          </mxGeometry>
        </mxCell>
        <mxCell id="Cvl91ToUlRYQaEAVH23j-14" value="no" style="edgeStyle=orthogonalEdgeStyle;rounded=0;orthogonalLoop=1;jettySize=auto;html=1;exitX=0;exitY=0.5;exitDx=0;exitDy=0;entryX=0.5;entryY=0;entryDx=0;entryDy=0;" parent="1" source="Cvl91ToUlRYQaEAVH23j-7" target="Cvl91ToUlRYQaEAVH23j-12" edge="1">
          <mxGeometry relative="1" as="geometry" />
        </mxCell>
        <mxCell id="Cvl91ToUlRYQaEAVH23j-7" value="logged in" style="rhombus;whiteSpace=wrap;html=1;" parent="1" vertex="1">
          <mxGeometry x="315" y="110" width="100" height="90" as="geometry" />
        </mxCell>
        <mxCell id="Cvl91ToUlRYQaEAVH23j-16" value="" style="edgeStyle=orthogonalEdgeStyle;rounded=0;orthogonalLoop=1;jettySize=auto;html=1;" parent="1" source="Cvl91ToUlRYQaEAVH23j-8" target="Cvl91ToUlRYQaEAVH23j-15" edge="1">
          <mxGeometry relative="1" as="geometry" />
        </mxCell>
        <mxCell id="Cvl91ToUlRYQaEAVH23j-8" value="get the number of unread notifications" style="whiteSpace=wrap;html=1;" parent="1" vertex="1">
          <mxGeometry x="460" y="210" width="120" height="60" as="geometry" />
        </mxCell>
        <mxCell id="Cvl91ToUlRYQaEAVH23j-50" value="" style="edgeStyle=orthogonalEdgeStyle;rounded=0;orthogonalLoop=1;jettySize=auto;html=1;" parent="1" source="Cvl91ToUlRYQaEAVH23j-12" target="Cvl91ToUlRYQaEAVH23j-49" edge="1">
          <mxGeometry relative="1" as="geometry" />
        </mxCell>
        <mxCell id="Cvl91ToUlRYQaEAVH23j-12" value="redirect to login page" style="rounded=0;whiteSpace=wrap;html=1;" parent="1" vertex="1">
          <mxGeometry x="170" y="210" width="120" height="60" as="geometry" />
        </mxCell>
        <mxCell id="Cvl91ToUlRYQaEAVH23j-18" value="yes" style="edgeStyle=orthogonalEdgeStyle;rounded=0;orthogonalLoop=1;jettySize=auto;html=1;" parent="1" source="Cvl91ToUlRYQaEAVH23j-15" target="Cvl91ToUlRYQaEAVH23j-17" edge="1">
          <mxGeometry relative="1" as="geometry" />
        </mxCell>
        <mxCell id="guqEUq2Tp1cGE5udS90E-2" value="no" style="edgeStyle=orthogonalEdgeStyle;rounded=0;orthogonalLoop=1;jettySize=auto;html=1;exitX=0.01;exitY=0.602;exitDx=0;exitDy=0;exitPerimeter=0;" edge="1" parent="1" source="Cvl91ToUlRYQaEAVH23j-15" target="guqEUq2Tp1cGE5udS90E-1">
          <mxGeometry relative="1" as="geometry">
            <Array as="points">
              <mxPoint x="481" y="370" />
              <mxPoint x="445" y="370" />
            </Array>
          </mxGeometry>
        </mxCell>
        <mxCell id="Cvl91ToUlRYQaEAVH23j-15" value="request is post&amp;nbsp;" style="rhombus;whiteSpace=wrap;html=1;" parent="1" vertex="1">
          <mxGeometry x="480" y="290" width="80" height="80" as="geometry" />
        </mxCell>
        <mxCell id="Cvl91ToUlRYQaEAVH23j-20" value="" style="edgeStyle=orthogonalEdgeStyle;rounded=0;orthogonalLoop=1;jettySize=auto;html=1;" parent="1" source="Cvl91ToUlRYQaEAVH23j-17" target="Cvl91ToUlRYQaEAVH23j-19" edge="1">
          <mxGeometry relative="1" as="geometry" />
        </mxCell>
        <mxCell id="Cvl91ToUlRYQaEAVH23j-17" value="fetch level of the quiz from user" style="whiteSpace=wrap;html=1;" parent="1" vertex="1">
          <mxGeometry x="620" y="300" width="120" height="60" as="geometry" />
        </mxCell>
        <mxCell id="Cvl91ToUlRYQaEAVH23j-22" value="" style="edgeStyle=orthogonalEdgeStyle;rounded=0;orthogonalLoop=1;jettySize=auto;html=1;" parent="1" source="Cvl91ToUlRYQaEAVH23j-19" target="Cvl91ToUlRYQaEAVH23j-23" edge="1">
          <mxGeometry relative="1" as="geometry">
            <mxPoint x="680" y="520" as="targetPoint" />
          </mxGeometry>
        </mxCell>
        <mxCell id="Cvl91ToUlRYQaEAVH23j-19" value="get difficulty settings related informations" style="whiteSpace=wrap;html=1;" parent="1" vertex="1">
          <mxGeometry x="620" y="380" width="120" height="60" as="geometry" />
        </mxCell>
        <mxCell id="Cvl91ToUlRYQaEAVH23j-25" value="yes" style="edgeStyle=orthogonalEdgeStyle;rounded=0;orthogonalLoop=1;jettySize=auto;html=1;" parent="1" source="Cvl91ToUlRYQaEAVH23j-23" target="Cvl91ToUlRYQaEAVH23j-24" edge="1">
          <mxGeometry relative="1" as="geometry">
            <Array as="points">
              <mxPoint x="720" y="525" />
              <mxPoint x="720" y="620" />
              <mxPoint x="750" y="620" />
            </Array>
          </mxGeometry>
        </mxCell>
        <mxCell id="Cvl91ToUlRYQaEAVH23j-27" value="" style="edgeStyle=orthogonalEdgeStyle;rounded=0;orthogonalLoop=1;jettySize=auto;html=1;" parent="1" source="Cvl91ToUlRYQaEAVH23j-23" target="Cvl91ToUlRYQaEAVH23j-26" edge="1">
          <mxGeometry relative="1" as="geometry" />
        </mxCell>
        <mxCell id="Cvl91ToUlRYQaEAVH23j-23" value="level not in difficulty settings" style="rhombus;whiteSpace=wrap;html=1;" parent="1" vertex="1">
          <mxGeometry x="580" y="470" width="110" height="110" as="geometry" />
        </mxCell>
        <mxCell id="Cvl91ToUlRYQaEAVH23j-48" style="edgeStyle=orthogonalEdgeStyle;rounded=0;orthogonalLoop=1;jettySize=auto;html=1;entryX=0.5;entryY=0;entryDx=0;entryDy=0;" parent="1" source="Cvl91ToUlRYQaEAVH23j-24" target="Cvl91ToUlRYQaEAVH23j-44" edge="1">
          <mxGeometry relative="1" as="geometry">
            <mxPoint x="770" y="870" as="targetPoint" />
          </mxGeometry>
        </mxCell>
        <mxCell id="Cvl91ToUlRYQaEAVH23j-24" value="redirect to quiz home page" style="whiteSpace=wrap;html=1;" parent="1" vertex="1">
          <mxGeometry x="690" y="660" width="120" height="60" as="geometry" />
        </mxCell>
        <mxCell id="Cvl91ToUlRYQaEAVH23j-29" value="" style="edgeStyle=orthogonalEdgeStyle;rounded=0;orthogonalLoop=1;jettySize=auto;html=1;" parent="1" source="Cvl91ToUlRYQaEAVH23j-26" target="Cvl91ToUlRYQaEAVH23j-28" edge="1">
          <mxGeometry relative="1" as="geometry" />
        </mxCell>
        <mxCell id="Cvl91ToUlRYQaEAVH23j-26" value="get 20 unique questions based on level specified" style="whiteSpace=wrap;html=1;" parent="1" vertex="1">
          <mxGeometry x="385" y="495" width="120" height="60" as="geometry" />
        </mxCell>
        <mxCell id="Cvl91ToUlRYQaEAVH23j-31" value="yes" style="edgeStyle=orthogonalEdgeStyle;rounded=0;orthogonalLoop=1;jettySize=auto;html=1;" parent="1" source="Cvl91ToUlRYQaEAVH23j-28" target="Cvl91ToUlRYQaEAVH23j-30" edge="1">
          <mxGeometry relative="1" as="geometry" />
        </mxCell>
        <mxCell id="Cvl91ToUlRYQaEAVH23j-33" value="" style="edgeStyle=orthogonalEdgeStyle;rounded=0;orthogonalLoop=1;jettySize=auto;html=1;" parent="1" source="Cvl91ToUlRYQaEAVH23j-28" target="Cvl91ToUlRYQaEAVH23j-32" edge="1">
          <mxGeometry relative="1" as="geometry" />
        </mxCell>
        <mxCell id="Cvl91ToUlRYQaEAVH23j-28" value="less than 20 questions" style="rhombus;whiteSpace=wrap;html=1;" parent="1" vertex="1">
          <mxGeometry x="405" y="625" width="80" height="80" as="geometry" />
        </mxCell>
        <mxCell id="Cvl91ToUlRYQaEAVH23j-47" style="edgeStyle=orthogonalEdgeStyle;rounded=0;orthogonalLoop=1;jettySize=auto;html=1;" parent="1" source="Cvl91ToUlRYQaEAVH23j-30" target="Cvl91ToUlRYQaEAVH23j-44" edge="1">
          <mxGeometry relative="1" as="geometry" />
        </mxCell>
        <mxCell id="Cvl91ToUlRYQaEAVH23j-30" value="render quiz error page" style="whiteSpace=wrap;html=1;" parent="1" vertex="1">
          <mxGeometry x="500" y="730" width="120" height="60" as="geometry" />
        </mxCell>
        <mxCell id="Cvl91ToUlRYQaEAVH23j-35" value="" style="edgeStyle=orthogonalEdgeStyle;rounded=0;orthogonalLoop=1;jettySize=auto;html=1;" parent="1" source="Cvl91ToUlRYQaEAVH23j-32" target="Cvl91ToUlRYQaEAVH23j-36" edge="1">
          <mxGeometry relative="1" as="geometry">
            <mxPoint x="285" y="775" as="targetPoint" />
          </mxGeometry>
        </mxCell>
        <mxCell id="Cvl91ToUlRYQaEAVH23j-32" value="randomize the 20 questions we have" style="whiteSpace=wrap;html=1;" parent="1" vertex="1">
          <mxGeometry x="225" y="635" width="120" height="60" as="geometry" />
        </mxCell>
        <mxCell id="Cvl91ToUlRYQaEAVH23j-38" value="no" style="edgeStyle=orthogonalEdgeStyle;rounded=0;orthogonalLoop=1;jettySize=auto;html=1;" parent="1" source="Cvl91ToUlRYQaEAVH23j-36" target="Cvl91ToUlRYQaEAVH23j-37" edge="1">
          <mxGeometry relative="1" as="geometry" />
        </mxCell>
        <mxCell id="Cvl91ToUlRYQaEAVH23j-41" value="yes" style="edgeStyle=orthogonalEdgeStyle;rounded=0;orthogonalLoop=1;jettySize=auto;html=1;" parent="1" source="Cvl91ToUlRYQaEAVH23j-36" target="Cvl91ToUlRYQaEAVH23j-40" edge="1">
          <mxGeometry relative="1" as="geometry" />
        </mxCell>
        <mxCell id="Cvl91ToUlRYQaEAVH23j-36" value="no more questions left&amp;nbsp;" style="rhombus;whiteSpace=wrap;html=1;" parent="1" vertex="1">
          <mxGeometry x="245" y="735" width="80" height="80" as="geometry" />
        </mxCell>
        <mxCell id="Cvl91ToUlRYQaEAVH23j-39" style="edgeStyle=orthogonalEdgeStyle;rounded=0;orthogonalLoop=1;jettySize=auto;html=1;entryX=0.5;entryY=0;entryDx=0;entryDy=0;exitX=0.5;exitY=0;exitDx=0;exitDy=0;" parent="1" source="Cvl91ToUlRYQaEAVH23j-37" target="Cvl91ToUlRYQaEAVH23j-36" edge="1">
          <mxGeometry relative="1" as="geometry">
            <Array as="points">
              <mxPoint x="150" y="715" />
              <mxPoint x="285" y="715" />
            </Array>
          </mxGeometry>
        </mxCell>
        <mxCell id="Cvl91ToUlRYQaEAVH23j-37" value="add question info to the questions list&amp;nbsp;" style="whiteSpace=wrap;html=1;" parent="1" vertex="1">
          <mxGeometry x="90" y="800" width="120" height="60" as="geometry" />
        </mxCell>
        <mxCell id="Cvl91ToUlRYQaEAVH23j-43" value="" style="edgeStyle=orthogonalEdgeStyle;rounded=0;orthogonalLoop=1;jettySize=auto;html=1;" parent="1" source="Cvl91ToUlRYQaEAVH23j-40" target="Cvl91ToUlRYQaEAVH23j-42" edge="1">
          <mxGeometry relative="1" as="geometry" />
        </mxCell>
        <mxCell id="Cvl91ToUlRYQaEAVH23j-40" value="save questions list and quiz level in sessions" style="whiteSpace=wrap;html=1;" parent="1" vertex="1">
          <mxGeometry x="360" y="840" width="120" height="60" as="geometry" />
        </mxCell>
        <mxCell id="Cvl91ToUlRYQaEAVH23j-45" value="" style="edgeStyle=orthogonalEdgeStyle;rounded=0;orthogonalLoop=1;jettySize=auto;html=1;entryX=0.5;entryY=0;entryDx=0;entryDy=0;" parent="1" source="Cvl91ToUlRYQaEAVH23j-42" target="Cvl91ToUlRYQaEAVH23j-44" edge="1">
          <mxGeometry relative="1" as="geometry" />
        </mxCell>
        <mxCell id="Cvl91ToUlRYQaEAVH23j-42" value="render quiz.html" style="whiteSpace=wrap;html=1;" parent="1" vertex="1">
          <mxGeometry x="360" y="980" width="120" height="60" as="geometry" />
        </mxCell>
        <mxCell id="Cvl91ToUlRYQaEAVH23j-44" value="end" style="ellipse;whiteSpace=wrap;html=1;" parent="1" vertex="1">
          <mxGeometry x="670" y="950" width="110" height="80" as="geometry" />
        </mxCell>
        <mxCell id="Cvl91ToUlRYQaEAVH23j-49" value="end" style="ellipse;whiteSpace=wrap;html=1;rounded=0;" parent="1" vertex="1">
          <mxGeometry x="190" y="340" width="120" height="80" as="geometry" />
        </mxCell>
        <mxCell id="guqEUq2Tp1cGE5udS90E-3" style="edgeStyle=orthogonalEdgeStyle;rounded=0;orthogonalLoop=1;jettySize=auto;html=1;" edge="1" parent="1" source="guqEUq2Tp1cGE5udS90E-1" target="Cvl91ToUlRYQaEAVH23j-49">
          <mxGeometry relative="1" as="geometry" />
        </mxCell>
        <mxCell id="guqEUq2Tp1cGE5udS90E-1" value="redirect to quiz home page" style="whiteSpace=wrap;html=1;" vertex="1" parent="1">
          <mxGeometry x="385" y="390" width="120" height="60" as="geometry" />
        </mxCell>
      </root>
    </mxGraphModel>
  </diagram>
</mxfile>
